# xmcd CD database file
#
# Track frame offsets:
#	150
#	21087
#	44605
#	69015
#	95887
#	116917
#	143530
#	168490
#	187660
#	210842
#	239652
#	260195
#
# Disc length: 3709 seconds
#
# Revision: 2
# Processed by: cddbd v1.5.2PL0 Copyright (c) Steve Scherf et al.
# Submitted via: CDex 1.51
#
DISCID=a80e7b0c
DTITLE=Masaki Ueda - Still Lovin' You
DYEAR=1994
DGENRE=New Age
TTITLE0=Night Star
TTITLE1=Go Down Gamblin'
TTITLE2=Still Lovin' You
TTITLE3=ASIAN
TTITLE4=Deja Vu
TTITLE5=TOKYO
TTITLE6=NO MOON
TTITLE7=Love of Mine
TTITLE8=Japanese Title - Track 9
TTITLE9=Japanese Title - Track 10
TTITLE10=It's Alright
TTITLE11=Still Lovin' You (Schick Version)
EXTD=YEAR: 1994
EXTT0=
EXTT1=
EXTT2=
EXTT3=
EXTT4=
EXTT5=
EXTT6=
EXTT7=
EXTT8=
EXTT9=
EXTT10=
EXTT11=
PLAYORDER=
